<?xml version="1.0" encoding="UTF-8" standalone="no"?>
<!-- Created with Inkscape (http://www.inkscape.org/) -->

<svg
   width="40mm"
   height="40mm"
   viewBox="0 0 40 40"
   version="1.1"
   id="svg1"
   xmlns="http://www.w3.org/2000/svg"
   xmlns:svg="http://www.w3.org/2000/svg">
  <defs
     id="defs1" />
  <g
     id="layer1">
    <path
       d="m 12.860781,1.7639337 c 0.350674,0.00216 0.350674,0.00216 0.708433,0.00436 0.771066,0.00512 1.542094,0.012011 2.313138,0.019101 0.536447,0.00433 1.072893,0.00862 1.609341,0.012867 1.123459,0.00922 2.246902,0.019394 3.370343,0.030155 1.440473,0.013654 2.880952,0.024205 4.321466,0.033947 1.107381,0.00796 2.214729,0.017909 3.32208,0.028437 0.531197,0.00474 1.062402,0.00876 1.593613,0.012076 0.741943,0.00485 1.483779,0.012482 2.225678,0.02082 0.219777,8.397e-4 0.439554,0.00167 0.66599,0.00255 2.001258,0.028044 2.001258,0.028044 2.68282,0.5229184 1.304956,1.4208636 1.183052,2.8453734 1.167559,4.6046579 9.81e-4,0.3062559 0.0024,0.612511 0.0042,0.9187641 0.0036,0.8281917 7.26e-4,1.6562782 -0.0035,2.4844639 -0.0036,0.868355 -0.0019,1.736703 -9.81e-4,2.605061 7.02e-4,1.45774 -0.0027,2.915437 -0.0088,4.373167 -0.0069,1.683623 -0.0074,3.367176 -0.0043,5.050804 0.0028,1.622188 0.0012,3.244351 -0.0024,4.866534 -0.0015,0.689257 -0.0015,1.378495 -2.43e-4,2.067749 0.0013,0.811936 -0.0014,1.623793 -0.007,2.435714 -0.0021,0.438913 -4.41e-4,0.877834 0.0014,1.316745 -0.02477,2.534541 -0.02477,2.534541 -0.88641,3.486233 -1.111791,0.64357 -2.062556,0.774655 -3.382432,0.827565 -0.178336,0.0074 -0.356672,0.01486 -0.540413,0.02251 -2.437249,0.09085 -4.877721,0.08718 -7.316725,0.08798 -0.522827,6.75e-4 -1.045653,0.0017 -1.568479,0.0023 -1.087659,0.0014 -2.175312,0.0017 -3.262972,0.0017 -1.388225,-2.3e-5 -2.776415,0.0031 -4.164631,0.0069 -1.076494,0.0024 -2.152979,0.003 -3.229477,0.0028 -0.511821,2.24e-4 -1.023643,0.0014 -1.535462,0.003 -0.715822,0.0022 -1.4315714,0.0017 -2.1473953,2.02e-4 -0.2072742,0.0014 -0.4145485,0.0025 -0.6281038,0.0038 -3.6534633,-0.01737 -3.6534633,-0.01737 -4.8249804,-0.804568 -1.1861671,-1.176986 -1.155,-2.290793 -1.1575058,-3.784451 -0.00129,-0.183829 -0.00257,-0.36766 -0.0039,-0.557061 -0.00379,-0.607536 -0.00556,-1.215061 -0.00699,-1.822606 -0.00149,-0.423312 -0.00299,-0.846623 -0.00447,-1.269935 -0.00273,-0.887699 -0.00424,-1.775396 -0.00514,-2.663099 -0.00143,-1.134662 -0.00766,-2.269265 -0.015035,-3.403908 -0.00484,-0.874675 -0.00618,-1.749335 -0.00658,-2.62402 -7.78e-4,-0.418137 -0.00286,-0.836275 -0.00627,-1.2544 -0.00445,-0.586549 -0.00393,-1.172952 -0.00225,-1.759509 -0.00238,-0.170996 -0.00479,-0.341994 -0.00724,-0.518172 0.010372,-1.164422 0.187485,-2.21143 0.877767,-3.228589 1.1190807,-0.878436 1.9742819,-1.01301 3.4584808,-1.013178 0.2754657,-0.0017 0.2754657,-0.0017 0.5564964,-0.0037 0.6025904,-0.0028 1.204856,9.36e-4 1.8074328,0.005 0.4203994,-3.5e-5 0.8407991,-3.61e-4 1.2611973,-0.0011 0.878825,-3.15e-4 1.757541,0.0024 2.636345,0.0077 1.126853,0.0064 2.253522,0.0058 3.380388,0.0029 0.867079,-0.0016 1.734114,1.84e-4 2.601187,0.003 0.415595,0.0011 0.831194,0.0011 1.246789,2.09e-4 0.579897,-6.51e-4 1.159543,0.0031 1.739409,0.008 0.329925,0.0012 0.659849,0.0024 0.999773,0.0037 0.801874,0.08726 0.801874,0.08726 1.295221,0.399599 0.593509,0.756344 0.495432,1.725495 0.544089,2.6135 0.0107,0.16508 0.0214,0.33016 0.03242,0.500243 0.03458,0.973421 -0.121808,1.752139 -0.551138,2.650669 -0.458839,0.398168 -1.124557,0.277966 -1.747635,0.296277 -0.312285,0.0094 -0.62457,0.01883 -0.946319,0.02853 -0.335981,0.0088 -0.671961,0.01773 -1.018124,0.02687 -0.339491,0.0099 -0.678983,0.01977 -1.028761,0.02994 -2.225195,0.06043 -4.446962,0.08963 -6.672799,0.04044 -1.391203,-0.04265 -1.391203,-0.04265 -2.5917562,0.478208 -0.3340382,0.909901 -0.3013537,1.824493 -0.3029228,2.770235 -8.558e-4,0.180893 -0.00174,0.361785 -0.00262,0.54816 -0.00132,0.381937 -0.00192,0.763878 -0.00187,1.145818 -5.705e-4,0.582831 -0.00528,1.165562 -0.010196,1.748375 -7.522e-4,0.371737 -0.00127,0.743477 -0.00153,1.115216 -0.00187,0.17352 -0.00373,0.347038 -0.00565,0.525816 0.00452,0.927532 0.067043,1.677192 0.58414,2.499376 0.736778,0.319678 1.360441,0.255476 2.184227,0.257758 0.256266,0.0011 0.256266,0.0011 0.517709,0.0023 0.566021,0.0022 1.132024,0.0025 1.698051,0.0028 0.392809,6.74e-4 0.785615,0.0017 1.178423,0.0023 0.823933,0.0014 1.647858,0.0017 2.471791,0.0017 1.056484,-2.3e-5 2.112924,0.0031 3.169398,0.0069 0.811446,0.0024 1.622879,0.003 2.43433,0.0028 0.389536,2.26e-4 0.779073,0.0014 1.168606,0.003 0.544544,0.0022 1.08899,0.0017 1.633536,2.02e-4 0.310016,2.26e-4 0.620035,6.76e-4 0.939446,9.37e-4 0.809209,-0.0058 0.809209,-0.0058 1.5377,-0.505773 0.324165,-0.843909 0.299709,-1.631585 0.30115,-2.510772 0.0013,-0.187079 0.0025,-0.374156 0.0039,-0.566901 0.0038,-0.619314 0.0056,-1.238614 0.007,-1.857935 0.0015,-0.430297 0.0029,-0.860593 0.0045,-1.29089 0.0027,-0.902475 0.0042,-1.804945 0.0052,-2.707423 0.0015,-1.15618 0.0077,-2.312302 0.01503,-3.468463 0.0048,-0.888936 0.0062,-1.777857 0.0066,-2.666801 7.78e-4,-0.426232 0.0028,-0.852466 0.0063,-1.278689 0.0044,-0.596412 0.0039,-1.192679 0.0022,-1.789099 0.0023,-0.175883 0.0048,-0.351765 0.0073,-0.532977 -0.009,-1.017363 -0.146021,-1.6792833 -0.877767,-2.4861698 C 27.92081,8.6525198 27.266288,8.7213578 26.427896,8.717543 26.250713,8.716393 26.07353,8.715253 25.890977,8.714083 25.505626,8.711673 25.12027,8.709743 24.734912,8.708203 24.124319,8.705553 23.513773,8.701173 22.903199,8.696247 21.166951,8.682378 19.430708,8.670229 17.694408,8.662708 16.632638,8.657988 15.570955,8.65003 14.509235,8.640031 14.10515,8.636851 13.701051,8.634881 13.296952,8.634171 12.730146,8.633061 12.163568,8.627851 11.596809,8.62172 11.274603,8.61962 10.952491,8.6178 10.620618,8.61593 9.3826969,8.4924317 8.4927474,8.1866471 7.702409,7.3384158 7.1133009,6.1340335 7.0741887,4.5580846 7.6102149,3.3268063 8.1513228,2.5971834 8.8017113,2.1071085 9.7695213,1.8611188 10.803506,1.7431471 11.819183,1.7534513 12.860781,1.7639337 Z"
       fill="#000000"
       id="path1"
       style="stroke-width:0.241604" />
  </g>
</svg>
