<?xml version="1.0" encoding="UTF-8"?>
<svg version="1.1" xmlns="http://www.w3.org/2000/svg" width="806" height="217">
<path d="M0 0 C1.35208054 0.00959244 1.35208054 0.00959244 2.73147583 0.01937866 C5.70444229 0.04212011 8.6772608 0.07274433 11.65014648 0.10424805 C13.71849912 0.12348443 15.78685345 0.14254011 17.85520935 0.16142273 C22.18688506 0.20237339 26.51849254 0.24759487 30.85009766 0.29541016 C36.40406897 0.35608037 41.9580623 0.40295567 47.51219273 0.44624043 C51.78187353 0.48157444 56.05142787 0.52581413 60.32099724 0.57259178 C62.36910984 0.59364812 64.4172574 0.61154717 66.46542549 0.6262455 C69.32609767 0.64779099 72.18636737 0.68170119 75.046875 0.71875 C75.89425735 0.72248123 76.74163971 0.72621246 77.61470032 0.73005676 C85.33086562 0.85466193 85.33086562 0.85466193 87.95874023 3.0534668 C92.99019979 9.36659015 92.52018272 15.69591392 92.46044922 23.51269531 C92.46423679 24.8734391 92.46974043 26.23417903 92.4768219 27.59490967 C92.4907357 31.27469804 92.47963646 34.95401672 92.46311069 38.63377881 C92.44921807 42.49201618 92.45572494 46.35022745 92.45924377 50.20848083 C92.46194226 56.68545058 92.44850046 63.16223461 92.42529297 69.63916016 C92.39867419 77.11976215 92.396941 84.60005397 92.40868133 92.08068711 C92.41947181 99.28832299 92.41326283 106.49584703 92.39912605 113.70347404 C92.39337837 116.76594637 92.39343928 119.82833652 92.39819145 122.89081001 C92.40297461 126.49836548 92.39280463 130.10558258 92.3712368 133.71307373 C92.36304666 135.66322718 92.36950642 137.61342503 92.37643433 139.56358337 C92.28091337 150.82495495 92.28091337 150.82495495 88.95874023 155.0534668 C84.67205383 157.91294809 81.00622847 158.49537523 75.91723633 158.73046875 C75.22963415 158.76348493 74.54203197 158.7965011 73.83359337 158.83051777 C64.43639304 159.23417308 55.02676742 159.2178567 45.62280273 159.22143555 C43.60696388 159.2246582 41.59112526 159.22802298 39.57528687 159.23152161 C35.38164731 159.23746196 31.18802822 159.23936646 26.99438477 159.23876953 C21.64186598 159.23866741 16.28947835 159.25239376 10.93699074 159.26954174 C6.7864014 159.2806899 2.63584371 159.28268798 -1.51475906 159.28215981 C-3.48817019 159.28333281 -5.46158233 159.287716 -7.43497849 159.29549217 C-10.19494528 159.30536329 -12.95462758 159.3023877 -15.71459961 159.29638672 C-16.51377808 159.30200623 -17.31295654 159.30762573 -18.13635254 159.31341553 C-32.22247834 159.23615377 -32.22247834 159.23615377 -36.73944664 155.73849773 C-41.31290051 150.50895813 -41.19273105 145.56013877 -41.20239258 138.92358398 C-41.20735748 138.10679672 -41.21232239 137.29000946 -41.21743774 136.44847107 C-41.23202961 133.74908603 -41.23885692 131.04975978 -41.24438477 128.3503418 C-41.25013929 126.46950276 -41.25589699 124.58866373 -41.26165771 122.70782471 C-41.27215968 118.76362841 -41.2780074 114.81945245 -41.28149414 110.87524414 C-41.2869728 105.83375772 -41.31099084 100.79254219 -41.33946609 95.75114059 C-41.35813818 91.86481962 -41.36330054 87.97856326 -41.36483002 84.09220123 C-41.36784747 82.23435233 -41.37584523 80.37650432 -41.3890152 78.51869965 C-41.40616917 75.91256932 -41.40417266 73.30709241 -41.39770508 70.70092773 C-41.40691986 69.94116135 -41.41613464 69.18139496 -41.42562866 68.39860535 C-41.38563366 63.22489422 -40.70275084 58.57286815 -38.04125977 54.0534668 C-33.72646765 50.1504367 -30.42910515 49.55250394 -24.70654297 49.55175781 C-23.64444107 49.54365334 -23.64444107 49.54365334 -22.56088257 49.53538513 C-20.23750073 49.52295112 -17.91537068 49.53934659 -15.59204102 49.55737305 C-13.97112463 49.55721798 -12.35020786 49.55572781 -10.72929382 49.55296326 C-7.34084583 49.55158184 -3.95282247 49.56409778 -0.56445312 49.58691406 C3.78030254 49.61536648 8.12435669 49.61253968 12.46916485 49.59982395 C15.81232205 49.59287454 19.1553167 49.60064639 22.49845314 49.61308098 C24.10084218 49.61759789 25.70324864 49.61793018 27.30563927 49.61401558 C29.54152721 49.61110876 31.77644202 49.62758086 34.01220703 49.64941406 C35.28428513 49.65481705 36.55636322 49.66022003 37.86698914 49.66578674 C40.95874023 50.0534668 40.95874023 50.0534668 42.86091614 51.44126892 C45.14928605 54.80183017 44.77113607 59.10791676 44.95874023 63.0534668 C44.99999023 63.78694336 45.04124023 64.52041992 45.08374023 65.27612305 C45.21707551 69.60118589 44.61408987 73.06115296 42.95874023 77.0534668 C41.1896138 78.82259323 38.62283325 78.2885124 36.22045898 78.36987305 C35.01639404 78.41168701 33.8123291 78.45350098 32.57177734 78.49658203 C31.2763501 78.535979 29.98092285 78.57537598 28.64624023 78.6159668 C27.33727783 78.65987549 26.02831543 78.70378418 24.6796875 78.74902344 C16.10009972 79.0175132 7.53372612 79.14726949 -1.04833984 78.92871094 C-6.41233674 78.73921675 -6.41233674 78.73921675 -11.04125977 81.0534668 C-12.32919892 85.09630516 -12.20317913 89.15997918 -12.20922852 93.36206055 C-12.21255692 94.16579605 -12.21588531 94.96953156 -12.21931458 95.79762268 C-12.22436866 97.49463327 -12.22672337 99.19165376 -12.2265625 100.88867188 C-12.22874905 103.47827588 -12.24692077 106.06745372 -12.26586914 108.65698242 C-12.26880341 110.30867368 -12.27078798 111.96036695 -12.27172852 113.61206055 C-12.27891403 114.38303574 -12.28609955 115.15401093 -12.29350281 115.948349 C-12.27607368 120.06952367 -12.03500563 123.4003844 -10.04125977 127.0534668 C-7.20049675 128.47384831 -4.7958658 128.1885949 -1.61962891 128.19873047 C-0.63155495 128.20376839 -0.63155495 128.20376839 0.3764801 128.20890808 C2.55886713 128.21842444 4.74117749 128.22036151 6.92358398 128.22143555 C8.43811576 128.22464757 9.95264723 128.2280116 11.46717834 128.23152161 C14.64397908 128.23751453 17.8207526 128.23936133 20.99755859 128.23876953 C25.071002 128.23866788 29.1442712 128.25232226 33.2176733 128.26954174 C36.34632674 128.28065257 39.47493794 128.28268903 42.60360909 128.28215981 C44.10553145 128.28334123 45.60745485 128.28777206 47.10935783 128.29549217 C49.2089348 128.30527404 51.30813195 128.30242143 53.40771484 128.29638672 C54.60303329 128.29781174 55.79835175 128.29923676 57.02989197 128.30070496 C60.14993305 128.27465474 60.14993305 128.27465474 62.95874023 126.0534668 C64.20861329 122.30384762 64.11431398 118.80407852 64.11987305 114.89770508 C64.12483795 114.06649139 64.12980286 113.23527771 64.13491821 112.37887573 C64.14953168 109.62716852 64.15634022 106.87551895 64.16186523 104.1237793 C64.16761704 102.21190387 64.17337477 100.30002847 64.17913818 98.38815308 C64.18964563 94.37831351 64.19549008 90.36849398 64.19897461 86.35864258 C64.204461 81.22154909 64.22849323 76.08472044 64.25694656 70.94771004 C64.27557281 66.99802883 64.28077852 63.04841145 64.28231049 59.09869003 C64.2853372 57.20486884 64.29336638 55.31104877 64.30649567 53.41727066 C64.32355705 50.7673147 64.32167584 48.11800623 64.31518555 45.46801758 C64.32440033 44.68654358 64.33361511 43.90506958 64.34310913 43.09991455 C64.30844124 38.57960981 63.7801038 35.63859375 60.95874023 32.0534668 C58.06549449 30.60684392 55.54187909 30.91270232 52.30932617 30.89575195 C51.62616837 30.89067123 50.94301056 30.88559052 50.239151 30.88035583 C48.75336748 30.86964563 47.26756777 30.861028 45.78176117 30.8542366 C43.42752149 30.84245123 41.07346556 30.82299792 38.71929932 30.80111694 C32.02492419 30.73949965 25.33056624 30.68551681 18.63598633 30.65209961 C14.54216637 30.63111357 10.44867877 30.59577524 6.35504913 30.55134201 C4.79703951 30.53720864 3.23897106 30.52846559 1.68090057 30.52528763 C-0.50450709 30.52035973 -2.68903894 30.49715393 -4.87426758 30.4699707 C-6.11621887 30.46188385 -7.35817017 30.453797 -8.63775635 30.44546509 C-13.41030146 29.89578751 -16.84164195 28.53713788 -19.88891602 24.76831055 C-22.16031477 19.41704908 -22.3111181 12.4148565 -20.24438477 6.9440918 C-18.15805794 3.70226088 -15.65038347 1.52477999 -11.9188385 0.43180847 C-7.93214596 -0.09235857 -4.01604384 -0.04657552 0 0 Z " fill="#000000" transform="translate(59.041259765625,27.946533203125)"/>
<path d="M0 0 C1.48831242 0.00667405 2.97660807 0.01863442 4.46484375 0.03515625 C5.22345703 0.03966797 5.98207031 0.04417969 6.76367188 0.04882812 C8.64326246 0.06064945 10.52281274 0.07858547 12.40234375 0.09765625 C13.65233805 9.77983657 13.54774813 19.41632968 13.53515625 29.16015625 C13.53583076 31.00195326 13.53680201 32.84375017 13.53805542 34.68554688 C13.53952252 38.52491106 13.53740776 42.36425183 13.53271484 46.20361328 C13.52698583 51.13107641 13.53032271 56.05848545 13.53628731 60.98594666 C13.53989223 64.7793621 13.53875521 68.5727646 13.53615952 72.36618042 C13.53549172 74.18431606 13.53631355 76.00245288 13.53863907 77.82058716 C13.54116791 80.35047555 13.53732319 82.88027455 13.53173828 85.41015625 C13.53376251 86.16336655 13.53578674 86.91657684 13.53787231 87.69261169 C13.51661498 92.86911379 13.51661498 92.86911379 12.40234375 95.09765625 C7.12234375 95.09765625 1.84234375 95.09765625 -3.59765625 95.09765625 C-4.25765625 92.78765625 -4.91765625 90.47765625 -5.59765625 88.09765625 C-6.44328125 88.86078125 -7.28890625 89.62390625 -8.16015625 90.41015625 C-15.53801834 96.42174758 -22.25652467 96.93209977 -31.59765625 96.09765625 C-37.74383342 94.86430966 -43.10283246 91.41310914 -47.59765625 87.09765625 C-48.28272176 85.77368213 -48.95239646 84.44147991 -49.59765625 83.09765625 C-50.25765625 82.76765625 -50.91765625 82.43765625 -51.59765625 82.09765625 C-57.40415296 70.46275151 -58.11383259 58.42464381 -54.62890625 45.953125 C-51.33645849 36.8365367 -44.90433634 30.31556981 -36.30859375 25.9296875 C-32.79342752 24.85082524 -29.42998971 24.7145623 -25.78515625 24.72265625 C-25.07391602 24.72354248 -24.36267578 24.72442871 -23.62988281 24.7253418 C-15.89375055 24.90003438 -11.6353993 27.51684685 -5.59765625 32.09765625 C-5.56007202 30.69688843 -5.56007202 30.69688843 -5.52172852 29.26782227 C-5.42678697 25.81440436 -5.32754367 22.36116665 -5.2253418 18.90795898 C-5.18193812 17.41126356 -5.14026712 15.91451686 -5.1003418 14.41772461 C-5.04277009 12.27051313 -4.97903909 10.12356104 -4.9140625 7.9765625 C-4.87740479 6.68306885 -4.84074707 5.3895752 -4.80297852 4.05688477 C-4.50386993 -0.25404883 -4.44866827 0.12075647 0 0 Z M-32.34765625 43.84765625 C-37.13407368 48.63407368 -38.24092262 53.64495579 -38.65234375 60.21875 C-38.54760165 65.73267347 -37.61449513 70.75736208 -33.94140625 75.01953125 C-29.41284998 79.04917878 -25.85971125 80.40746623 -19.65625 80.31640625 C-15.55245199 79.88032904 -12.6477619 77.87773473 -9.41015625 75.47265625 C-4.76209691 69.38209574 -4.1133103 63.05803971 -5.08984375 55.609375 C-6.26598034 49.7920225 -8.94584836 45.73820155 -13.59765625 42.09765625 C-20.47676677 39.36928723 -26.02289702 39.82280947 -32.34765625 43.84765625 Z " fill="#010101" transform="translate(774.59765625,55.90234375)"/>
<path d="M0 0 C5.45769811 -0.11138159 10.61509359 0.08342019 16 1 C17.16236418 5.16317574 17.14020831 9.19074221 17.12939453 13.48461914 C17.13202301 14.7657383 17.13202301 14.7657383 17.13470459 16.07273865 C17.13910298 18.89356523 17.13619244 21.71432904 17.1328125 24.53515625 C17.13348605 26.49523429 17.13445651 28.45531226 17.13571167 30.41539001 C17.13718586 34.52180782 17.13504277 38.62820387 17.13037109 42.73461914 C17.12467022 48.00293996 17.12795685 53.27120989 17.13394356 58.53952885 C17.13755346 62.5860584 17.13640867 66.63257584 17.13381577 70.67910576 C17.13314788 72.62201379 17.1339701 74.56492291 17.13629532 76.50782967 C17.13882925 79.22017464 17.13497089 81.93243661 17.12939453 84.64477539 C17.13141876 85.45057037 17.13344299 86.25636536 17.13552856 87.08657837 C17.12318535 90.32047757 17.03013984 92.90958047 16 96 C13.54159395 96.02691685 11.08348118 96.04679802 8.625 96.0625 C7.92632812 96.07087891 7.22765625 96.07925781 6.5078125 96.08789062 C1.2265625 96.11328125 1.2265625 96.11328125 -1 95 C-1 93.02 -1 91.04 -1 89 C-1.50789063 89.40992188 -2.01578125 89.81984375 -2.5390625 90.2421875 C-10.18629677 96.22822481 -16.31098866 97.83048669 -26 97 C-34.09800994 95.58076114 -40.59668611 92.3293857 -45.72265625 85.80859375 C-52.50424352 75.42793313 -54.28808633 64.00076775 -52.25 51.9375 C-50.17459615 42.6769049 -45.46995526 35.17576991 -37.88671875 29.38671875 C-30.43884001 24.94302639 -22.36452549 24.918526 -14 26 C-9.33795566 27.557833 -5.48416316 29.51583684 -2 33 C-1.96241577 31.6070874 -1.96241577 31.6070874 -1.92407227 30.18603516 C-1.82902068 26.74564196 -1.72978293 23.30542287 -1.62768555 19.86523438 C-1.58433411 18.37537359 -1.54265916 16.88546305 -1.50268555 15.39550781 C-1.44498785 13.25570673 -1.38129245 11.11615615 -1.31640625 8.9765625 C-1.27974854 7.68830566 -1.24309082 6.40004883 -1.20532227 5.07275391 C-1 2 -1 2 0 0 Z M-30.3125 46.125 C-34.78347352 53.74221414 -35.74374795 60.30829513 -34 69 C-32.1413467 74.28248834 -29.41689457 76.77934771 -25 80 C-19.39703294 81.86765569 -14.25634129 81.31629936 -8.86328125 79.1171875 C-5.08540299 76.85204456 -2.70198794 73.22746172 -1.390625 69.06640625 C0.09458546 61.20964292 -0.85305605 53.89934038 -5 47 C-8.5481357 43.0835768 -12.69578964 41.21401583 -17.94921875 40.8671875 C-22.88154227 41.18661417 -26.68755953 42.79397362 -30.3125 46.125 Z " fill="#010101" transform="translate(249,55)"/>
<path d="M0 0 C0.33 9.9 0.66 19.8 1 30 C3.64 28.35 6.28 26.7 9 25 C16.38249282 22.59266538 23.65362906 22.46359644 31 25 C37.08828603 28.10157968 40.81313354 32.59764947 43.04370117 38.99194336 C44.34716646 43.69408915 44.33438293 48.35133555 44.37890625 53.203125 C44.39590073 54.16273132 44.4128952 55.12233765 44.43040466 56.11102295 C44.48325301 59.15728291 44.52372063 62.20353107 44.5625 65.25 C44.60647812 68.31068482 44.65316855 71.37126677 44.70530701 74.43182373 C44.73718354 76.33152481 44.7640985 78.23131701 44.78553772 80.13116455 C44.79902756 80.9892572 44.8125174 81.84734985 44.82641602 82.73144531 C44.83592789 83.48532532 44.84543976 84.23920532 44.85523987 85.01593018 C44.93350437 87.21110616 44.93350437 87.21110616 46 90 C45.34 91.32 44.68 92.64 44 94 C38.39 94 32.78 94 27 94 C26.1190437 89.59521849 25.91079037 86.09582323 25.97265625 81.64453125 C25.98531248 80.20247644 25.99767269 78.76041901 26.00976562 77.31835938 C26.03443728 75.07177304 26.06230791 72.825328 26.09594727 70.57885742 C26.95242536 56.25003842 26.95242536 56.25003842 22 43.4375 C17.79542592 40.41546238 14.05167004 40.52722672 9 41 C5.59116844 42.33389061 4.36881814 43.42598956 2.39697266 46.49487305 C0.56869006 51.08219448 0.54099713 55.06373991 0.5234375 59.95703125 C0.50006821 61.37238411 0.50006821 61.37238411 0.47622681 62.81632996 C0.42887629 65.81504563 0.40098386 68.8135296 0.375 71.8125 C0.33853617 74.82916189 0.29799831 77.84569157 0.25234985 80.86222839 C0.22506914 82.7362645 0.20374149 84.61039817 0.18881226 86.48457336 C0.11070165 92.88929835 0.11070165 92.88929835 -1 94 C-3.6773138 94.09981214 -6.32304175 94.13879875 -9 94.125 C-10.12535156 94.13080078 -10.12535156 94.13080078 -11.2734375 94.13671875 C-16.87338947 94.12661053 -16.87338947 94.12661053 -18 93 C-18.09525367 90.07805335 -18.12552736 87.17979671 -18.11352539 84.25756836 C-18.11367142 83.3405867 -18.11381744 82.42360504 -18.1139679 81.47883606 C-18.1132684 78.43248164 -18.10547428 75.38618755 -18.09765625 72.33984375 C-18.0957922 70.23377007 -18.09436824 68.12769597 -18.09336853 66.0216217 C-18.08954231 60.46657117 -18.07971114 54.91154659 -18.06866455 49.35650635 C-18.05845267 43.6927526 -18.05387139 38.02899467 -18.04882812 32.36523438 C-18.03808896 21.24347815 -18.0210113 10.12174123 -18 -1 C-15.75135275 -1.22245975 -13.50097377 -1.42746557 -11.25 -1.625 C-9.37054688 -1.79902344 -9.37054688 -1.79902344 -7.453125 -1.9765625 C-4 -2 -4 -2 0 0 Z " fill="#010101" transform="translate(477,57)"/>
<path d="M0 0 C5.70511128 5.65571638 7.96276388 11.49775568 8.3671875 19.3515625 C8.4089209 20.15062012 8.4506543 20.94967773 8.49365234 21.77294922 C8.89161935 30.65005001 8.91523099 39.5297613 8.9296875 48.4140625 C8.9322757 49.16559601 8.93486389 49.91712952 8.93753052 50.69143677 C8.94336792 52.84121495 8.94181085 54.99084579 8.9375 57.140625 C8.93637207 58.39697754 8.93524414 59.65333008 8.93408203 60.94775391 C8.8046875 63.7890625 8.8046875 63.7890625 7.8046875 64.7890625 C5.27419348 64.86219817 2.77163913 64.88153777 0.2421875 64.8515625 C-0.82418945 64.84479492 -0.82418945 64.84479492 -1.91210938 64.83789062 C-3.67321263 64.82607114 -5.43427286 64.80813513 -7.1953125 64.7890625 C-7.8553125 62.4790625 -8.5153125 60.1690625 -9.1953125 57.7890625 C-10.0203125 58.5521875 -10.8453125 59.3153125 -11.6953125 60.1015625 C-18.24840229 65.45350591 -24.66934551 66.36285822 -32.94140625 66.1328125 C-39.61099528 65.42822206 -45.06155205 63.4341279 -49.6953125 58.4765625 C-54.00455321 52.71463157 -54.65061932 47.12889007 -53.73046875 40.1484375 C-52.34465903 34.03873627 -48.13400701 30.30313359 -43.1953125 26.7890625 C-33.20782126 21.88611225 -21.17460237 21.32405728 -10.1953125 21.7890625 C-9.83859317 17.95432966 -9.89759834 16.23563375 -12.0703125 12.9765625 C-15.22873123 9.7252491 -17.08099703 9.61094584 -21.5078125 9.5390625 C-25.89692399 9.59643651 -28.86583748 9.66767967 -32.1953125 12.7890625 C-34.02161044 15.85587049 -34.02161044 15.85587049 -35.1953125 18.7890625 C-37.1753125 18.7890625 -39.1553125 18.7890625 -41.1953125 18.7890625 C-41.5253125 19.4490625 -41.8553125 20.1090625 -42.1953125 20.7890625 C-42.1953125 20.1290625 -42.1953125 19.4690625 -42.1953125 18.7890625 C-43.4946875 18.8096875 -44.7940625 18.8303125 -46.1328125 18.8515625 C-47.48696883 18.87305704 -48.84287333 18.86054449 -50.1953125 18.7890625 C-50.5253125 18.4590625 -50.8553125 18.1290625 -51.1953125 17.7890625 C-51.07004518 10.77409275 -48.90361237 6.00502261 -44.1953125 0.7890625 C-32.70772208 -8.73384947 -11.74603542 -8.99790638 0 0 Z M-21.0703125 34.4765625 C-22.11251953 34.57614258 -22.11251953 34.57614258 -23.17578125 34.67773438 C-28.05120235 35.26076496 -31.37248182 36.5039097 -35.1953125 39.7890625 C-36.20627397 42.76483043 -35.65488597 44.5720482 -35.1953125 47.7890625 C-34.27864583 49.87239583 -34.27864583 49.87239583 -32.1953125 50.7890625 C-26.5736015 52.25070736 -21.5894366 51.79595078 -16.1953125 49.7890625 C-12.74261928 47.67708105 -10.50734252 45.72515257 -9.1953125 41.7890625 C-9.15577016 39.45606425 -9.15129518 37.12198061 -9.1953125 34.7890625 C-13.15959419 33.36151029 -16.98763606 33.97840106 -21.0703125 34.4765625 Z " fill="#010101" transform="translate(701.1953125,86.2109375)"/>
<path d="M0 0 C8.47179295 9.35535418 9.42256675 19.86894942 9 32 C-1.09624014 33.10233444 -11.11133216 33.11736516 -21.25 33.0625 C-22.88150903 33.05747149 -24.51301958 33.05291099 -26.14453125 33.04882812 C-30.0963923 33.03793757 -34.04817892 33.02074866 -38 33 C-37.54121997 34.28556341 -37.07653548 35.56902069 -36.609375 36.8515625 C-36.35124023 37.56650879 -36.09310547 38.28145508 -35.82714844 39.01806641 C-34.10545264 43.14342842 -31.86839739 44.6424246 -27.8125 46.3125 C-23.23254623 47.1383933 -19.46507013 47.47066826 -15 46 C-12.86851521 44.37140579 -12.86851521 44.37140579 -10.8125 42.4375 C-5.77446974 38.04491134 -1.19571284 38.41948156 5.25390625 38.75390625 C6.16011719 38.83511719 7.06632813 38.91632813 8 39 C7.72012497 45.57706319 5.31711148 50.05330977 1 55 C-7.85199864 62.429356 -16.71715312 63.82972519 -28.03613281 63.1953125 C-37.19031145 62.2849019 -43.77558686 57.84359426 -49.65234375 51.10546875 C-56.3861828 42.23128966 -57.86068301 31.03694985 -56.640625 20.17578125 C-54.54308815 9.777626 -50.2921192 1.66250931 -41.4375 -4.25 C-27.84218175 -11.89233866 -11.76787529 -10.1253968 0 0 Z M-36.375 13.0625 C-38.24203069 15.87801498 -38.24203069 15.87801498 -38 19 C-32.19769071 20.00012445 -26.56832643 20.15066179 -20.6875 20.125 C-19.78193359 20.12886719 -18.87636719 20.13273437 -17.94335938 20.13671875 C-16.64688477 20.13478516 -16.64688477 20.13478516 -15.32421875 20.1328125 C-14.54135498 20.13168457 -13.75849121 20.13055664 -12.9519043 20.12939453 C-10.91974955 20.12115443 -10.91974955 20.12115443 -9 19 C-9.27309936 15.08557587 -9.74992213 13.2973899 -12.3125 10.25 C-16.78308397 6.50718552 -19.99019608 5.53607247 -25.75390625 5.6875 C-30.76308494 6.38442921 -33.39317598 9.21751639 -36.375 13.0625 Z " fill="#010101" transform="translate(631,89)"/>
<path d="M0 0 C7.57288056 8.01498846 10.13180543 17.40348315 10.1875 28.25 C10.14052081 29.83386983 10.08410038 31.41766697 10 33 C7.15686669 33.80974903 4.64297035 34.12241859 1.69042969 34.11352539 C0.84986023 34.11344986 0.00929077 34.11337433 -0.85675049 34.11329651 C-2.20383087 34.10555458 -2.20383087 34.10555458 -3.578125 34.09765625 C-4.5046991 34.0962413 -5.43127319 34.09482635 -6.38592529 34.09336853 C-9.34064992 34.08777824 -12.29529833 34.0752275 -15.25 34.0625 C-17.25520724 34.05748375 -19.26041567 34.05292106 -21.265625 34.04882812 C-26.17711263 34.03781199 -31.0885434 34.020554 -36 34 C-35.29063323 39.46136139 -34.00059181 42.08831023 -30 46 C-24.83684338 48.76168843 -19.57813761 48.14542726 -14 47 C-10.34915253 45.32669491 -9.24461704 44.36692556 -7 41 C-3.57767028 39.85922343 -0.91326783 39.90184883 2.6875 39.9375 C4.45673828 39.95103516 4.45673828 39.95103516 6.26171875 39.96484375 C7.16535156 39.97644531 8.06898438 39.98804688 9 40 C8.86401141 47.47937268 6.23076338 51.71884391 1 57 C-7.83116077 64.12023139 -17.96909786 65.06066367 -29 64 C-38.18835144 61.70291214 -45.19704642 56.96631041 -50.3046875 48.953125 C-55.55193318 39.07145065 -56.75871037 27.59690355 -54.2421875 16.7265625 C-50.73831156 6.65636788 -44.99475506 -0.60674242 -35.6875 -5.875 C-23.18047603 -9.69070223 -10.30183319 -8.4590862 0 0 Z M-33 11 C-35.97828309 15.68110623 -35.97828309 15.68110623 -37 21 C-27.43 21 -17.86 21 -8 21 C-9.01092564 13.56383182 -9.01092564 13.56383182 -14 9 C-20.14311207 4.90459195 -27.70806661 5.96006344 -33 11 Z " fill="#010101" transform="translate(328,88)"/>
<path d="M0 0 C5.94 0 11.88 0 18 0 C22.16891451 10.00337599 25.55248812 20.25824445 29.01733398 30.52026367 C29.81516518 32.88020912 30.61644384 35.2389633 31.41796875 37.59765625 C31.6627446 38.3267067 31.90752045 39.05575714 32.15971375 39.80690002 C33.1113532 43.16684446 33.1113532 43.16684446 35 46 C35.17015625 45.45923828 35.3403125 44.91847656 35.515625 44.36132812 C40.19239417 29.52253658 45.0453263 14.74819756 50 0 C56.27 0 62.54 0 69 0 C67.87510471 7.874267 67.87510471 7.874267 66.63647461 11.02563477 C66.36180862 11.73560104 66.08714264 12.44556732 65.80415344 13.17704773 C65.35775764 14.2979052 65.35775764 14.2979052 64.90234375 15.44140625 C64.59205734 16.23871658 64.28177094 17.03602692 63.96208191 17.85749817 C62.96038289 20.42842314 61.94891821 22.99538521 60.9375 25.5625 C59.56548715 29.07545419 58.19863155 32.59040604 56.83203125 36.10546875 C56.49737854 36.96432678 56.16272583 37.82318481 55.81793213 38.70806885 C52.80783238 46.44999999 49.94322262 54.23788089 47.17163086 62.06860352 C45.0945867 67.9054133 45.0945867 67.9054133 44 69 C42.58429877 69.08651611 41.164405 69.10704904 39.74609375 69.09765625 C38.89208984 69.09443359 38.03808594 69.09121094 37.15820312 69.08789062 C36.26037109 69.07951172 35.36253906 69.07113281 34.4375 69.0625 C33.53580078 69.05798828 32.63410156 69.05347656 31.70507812 69.04882812 C29.46998686 69.03700225 27.23502563 69.0205222 25 69 C19.88884741 57.17327537 15.40016865 45.09864079 10.8125 33.0625 C9.5831863 29.84190529 8.35336435 26.62150536 7.12321472 23.40122986 C6.36245786 21.40923879 5.60226875 19.41703076 4.84272766 17.42457581 C4.49864365 16.52271042 4.15455963 15.62084503 3.80004883 14.69165039 C3.49980301 13.90399796 3.19955719 13.11634552 2.89021301 12.30482483 C2.26717182 10.69172684 1.59509177 9.09711057 0.88749695 7.51927185 C0 5 0 5 0 0 Z " fill="#010101" transform="translate(338,82)"/>
<path d="M0 0 C2.47923801 -0.02685095 4.9581884 -0.04676547 7.4375 -0.0625 C8.14455078 -0.07087891 8.85160156 -0.07925781 9.58007812 -0.08789062 C11.38693559 -0.09653588 13.19387603 -0.05220011 15 0 C17.05922402 2.05922402 16.41427579 6.21708124 16.5625 9.0625 C16.60568359 9.82111328 16.64886719 10.57972656 16.69335938 11.36132812 C16.79973633 13.24065438 16.90039934 15.12030244 17 17 C21.95 17.33 26.9 17.66 32 18 C32 22.95 32 27.9 32 33 C29.11584117 34.44207941 26.58278472 34.09394887 23.375 34.0625 C22.18648438 34.05347656 20.99796875 34.04445312 19.7734375 34.03515625 C18.85820312 34.02355469 17.94296875 34.01195312 17 34 C16.95048212 38.4840341 16.91422474 42.96792239 16.89013672 47.45214844 C16.88009256 48.97691623 16.86645469 50.50166484 16.84912109 52.02636719 C16.82480262 54.22075138 16.81350111 56.41488042 16.8046875 58.609375 C16.79421387 59.92905273 16.78374023 61.24873047 16.77294922 62.60839844 C16.98298303 65.74580679 17.22654183 67.44914617 19 70 C21.52098243 71.26049122 23.2549308 71.06463469 26.0625 71 C27.70789986 70.96222898 29.35482156 70.95357521 31 71 C32 72 32 72 32.09765625 75.16015625 C32.08605469 76.44792969 32.07445312 77.73570312 32.0625 79.0625 C32.05347656 80.35285156 32.04445313 81.64320313 32.03515625 82.97265625 C32.02355469 83.97167969 32.01195312 84.97070312 32 86 C23.37747655 88.93532713 15.33124996 89.05216438 7 85 C2.78528321 81.60990171 -0.46465234 77.56183672 -1.29180908 72.0585022 C-1.42404568 69.84365253 -1.46717657 67.64453738 -1.4765625 65.42578125 C-1.49214203 64.62013229 -1.50772156 63.81448334 -1.52377319 62.98442078 C-1.57104589 60.42712294 -1.59897831 57.87009463 -1.625 55.3125 C-1.66154655 52.74438358 -1.70217998 50.17641805 -1.74765015 47.60844421 C-1.77477959 46.01479457 -1.79617281 44.42103455 -1.81118774 42.82722473 C-1.85666241 39.63148026 -1.9822258 37.05332259 -3 34 C-4.7015625 34.0309375 -4.7015625 34.0309375 -6.4375 34.0625 C-10 34 -10 34 -11 33 C-11.09909302 30.66839945 -11.12970504 28.33370058 -11.125 26 C-11.12757813 24.72125 -11.13015625 23.4425 -11.1328125 22.125 C-11 19 -11 19 -10 18 C-7.34536879 17.54540142 -4.67810862 17.29756762 -2 17 C-2.02320313 16.10796875 -2.04640625 15.2159375 -2.0703125 14.296875 C-2.09738281 12.54117188 -2.09738281 12.54117188 -2.125 10.75 C-2.14820313 9.58984375 -2.17140625 8.4296875 -2.1953125 7.234375 C-2.0103949 4.17213954 -1.60823023 2.55797249 0 0 Z " fill="#010101" transform="translate(420,64)"/>
<path d="M0 0 C1 1 1 1 1.09765625 4.81640625 C1.09098089 6.39846682 1.07901875 7.98051159 1.0625 9.5625 C1.05798828 10.36880859 1.05347656 11.17511719 1.04882812 12.00585938 C1.03700518 14.00393756 1.01906914 16.00197783 1 18 C0.04738281 18.10957031 -0.90523437 18.21914062 -1.88671875 18.33203125 C-3.14097656 18.49058594 -4.39523437 18.64914063 -5.6875 18.8125 C-6.92886719 18.96332031 -8.17023437 19.11414063 -9.44921875 19.26953125 C-12.98248045 19.99639587 -15.12273217 20.86424221 -18 23 C-22.10897819 29.45696573 -22.1527387 36.3817162 -22.02734375 43.83203125 C-22.01471522 45.30403426 -22.002353 46.77603958 -21.99023438 48.24804688 C-21.96529062 50.54361332 -21.93711746 52.8390571 -21.90405273 55.13452148 C-21.87397009 57.36703296 -21.85613079 59.59938273 -21.83984375 61.83203125 C-21.82638412 62.52158401 -21.8129245 63.21113678 -21.79905701 63.92158508 C-21.79008443 65.61569093 -21.88650702 67.30967622 -22 69 C-24 71 -24 71 -27.6953125 71.1953125 C-29.17201668 71.1838709 -30.64861801 71.15789907 -32.125 71.125 C-33.52977411 71.10201654 -34.93456032 71.07976487 -36.33935547 71.05810547 C-37.54736816 71.03893066 -38.75538086 71.01975586 -40 71 C-40.80206384 57.64718996 -41.1598674 44.34361664 -41.13037109 30.96704102 C-41.12490751 28.01248269 -41.13041234 25.05806999 -41.13671875 22.10351562 C-41.13605949 20.20572883 -41.13478151 18.30794213 -41.1328125 16.41015625 C-41.13483673 15.53625748 -41.13686096 14.6623587 -41.13894653 13.76197815 C-41.13579437 12.94599655 -41.13264221 12.13001495 -41.12939453 11.28930664 C-41.12859894 10.57907852 -41.12780334 9.8688504 -41.12698364 9.13710022 C-41 7 -41 7 -40 2 C-34.39 2 -28.78 2 -23 2 C-22.67 4.31 -22.34 6.62 -22 9 C-21.360625 8.071875 -20.72125 7.14375 -20.0625 6.1875 C-15.00348849 0.14240997 -7.44285212 -0.53163229 0 0 Z " fill="#010101" transform="translate(572,80)"/>
<path d="M0 0 C2.97 0 5.94 0 9 0 C9 0.33 9 0.66 9 1 C6.03 1 3.06 1 0 1 C0 0.67 0 0.34 0 0 Z " fill="#151715" transform="translate(394,80)"/>
<path d="M0 0 C2.97 0 5.94 0 9 0 C9 0.33 9 0.66 9 1 C6.03 1 3.06 1 0 1 C0 0.67 0 0.34 0 0 Z " fill="#141414" transform="translate(345,80)"/>
<path d="M0 0 C3 1 3 1 3 1 Z " fill="#1D1D1C" transform="translate(689,80)"/>
<path d="M0 0 C3 1 3 1 3 1 Z " fill="#181819" transform="translate(546,80)"/>
<path d="" fill="#1A1B1A" transform="translate(0,0)"/>
<path d="M0 0 C2 1 2 1 2 1 Z " fill="#1B191C" transform="translate(739,80)"/>
<path d="M0 0 C2 1 2 1 2 1 Z " fill="#141516" transform="translate(543,80)"/>
<path d="M0 0 C2 1 2 1 2 1 Z " fill="#171617" transform="translate(538,80)"/>
<path d="M0 0 C2 1 2 1 2 1 Z " fill="#121314" transform="translate(446,80)"/>
<path d="M0 0 C2 1 2 1 2 1 Z " fill="#131213" transform="translate(440,80)"/>
<path d="" fill="#202022" transform="translate(0,0)"/>
<path d="" fill="#111411" transform="translate(0,0)"/>
<path d="" fill="#141311" transform="translate(0,0)"/>
<path d="" fill="#131313" transform="translate(0,0)"/>
<path d="" fill="#121513" transform="translate(0,0)"/>
<path d="" fill="#171818" transform="translate(0,0)"/>
<path d="" fill="#151415" transform="translate(0,0)"/>
<path d="" fill="#151516" transform="translate(0,0)"/>
<path d="" fill="#161716" transform="translate(0,0)"/>
<path d="" fill="#151315" transform="translate(0,0)"/>
<path d="" fill="#161415" transform="translate(0,0)"/>
<path d="" fill="#101110" transform="translate(0,0)"/>
<path d="" fill="#161615" transform="translate(0,0)"/>
<path d="" fill="#131212" transform="translate(0,0)"/>
<path d="" fill="#141214" transform="translate(0,0)"/>
<path d="" fill="#101312" transform="translate(0,0)"/>
<path d="" fill="#141314" transform="translate(0,0)"/>
<path d="" fill="#0F0E10" transform="translate(0,0)"/>
<path d="" fill="#131312" transform="translate(0,0)"/>
<path d="" fill="#121311" transform="translate(0,0)"/>
<path d="" fill="#151713" transform="translate(0,0)"/>
<path d="" fill="#121013" transform="translate(0,0)"/>
<path d="" fill="#100C0E" transform="translate(0,0)"/>
<path d="" fill="#131214" transform="translate(0,0)"/>
<path d="" fill="#121313" transform="translate(0,0)"/>
<path d="" fill="#151616" transform="translate(0,0)"/>
<path d="" fill="#141616" transform="translate(0,0)"/>
<path d="" fill="#161715" transform="translate(0,0)"/>
<path d="" fill="#1C1B1B" transform="translate(0,0)"/>
<path d="" fill="#1C1E1F" transform="translate(0,0)"/>
<path d="" fill="#181818" transform="translate(0,0)"/>
<path d="" fill="#171A17" transform="translate(0,0)"/>
<path d="" fill="#131416" transform="translate(0,0)"/>
<path d="" fill="#141313" transform="translate(0,0)"/>
<path d="" fill="#141415" transform="translate(0,0)"/>
<path d="" fill="#161514" transform="translate(0,0)"/>
<path d="" fill="#1A1A19" transform="translate(0,0)"/>
<path d="" fill="#191A1A" transform="translate(0,0)"/>
<path d="" fill="#121316" transform="translate(0,0)"/>
<path d="" fill="#151513" transform="translate(0,0)"/>
<path d="" fill="#1C1A1B" transform="translate(0,0)"/>
<path d="" fill="#1F2221" transform="translate(0,0)"/>
<path d="" fill="#292A28" transform="translate(0,0)"/>
</svg>
